<svg width="36" height="25" viewBox="0 0 36 25" fill="none" xmlns="http://www.w3.org/2000/svg">
<path d="M23.3435 12.5899L35.2156 20.281V4.57397L23.3435 12.5899Z" fill="#7CB93C"/>
<path d="M0 4.57397V20.281L11.8721 12.5899L0 4.57397Z" fill="#7CB93C"/>
<path d="M33.0146 0H2.20097C1.10268 0 0.231098 0.839021 0.0660248 1.91939L17.6078 13.7628L35.1496 1.91939C34.9845 0.839021 34.1129 0 33.0146 0Z" fill="#7CB93C"/>
<path d="M21.3275 13.9522L18.2131 16.0543C18.0282 16.1783 17.8191 16.2392 17.6078 16.2392C17.3965 16.2392 17.1874 16.1783 17.0025 16.0543L13.8881 13.95L0.0704193 22.9064C0.239894 23.9777 1.10708 24.81 2.20096 24.81H33.0146C34.1085 24.81 34.9757 23.9777 35.1452 22.9064L21.3275 13.9522Z" fill="#7CB93C"/>
</svg>
