<svg width="99" height="99" viewBox="0 0 99 99" fill="none" xmlns="http://www.w3.org/2000/svg">
<path d="M94.4073 54.9644C93.925 54.4779 93.4125 54.0269 92.8688 53.6102C92.325 53.1946 91.7552 52.8175 91.1594 52.479C90.5646 52.1415 89.9479 51.8456 89.3125 51.5925C88.676 51.3394 88.025 51.13 87.3604 50.9665C86.6958 50.8029 86.0229 50.6852 85.3417 50.6133C84.6604 50.5425 83.9781 50.5175 83.2938 50.5394C82.6094 50.5623 81.9292 50.631 81.2542 50.7467C80.5792 50.8623 79.9156 51.0238 79.2625 51.231L78.0448 50.029L78.6542 49.4196C78.7646 49.3081 78.8708 49.1925 78.9698 49.0706C79.0698 48.9487 79.1635 48.8227 79.251 48.6915C79.3385 48.5612 79.4188 48.4258 79.4927 48.2873C79.5677 48.1488 79.6344 48.006 79.6948 47.8612C79.7542 47.7154 79.8073 47.5675 79.8531 47.4175C79.899 47.2665 79.9365 47.1144 79.9677 46.9592C79.9979 46.805 80.0219 46.6498 80.0365 46.4935C80.0521 46.3363 80.0594 46.18 80.0594 46.0227C80.0594 45.8654 80.0521 45.7081 80.0365 45.5519C80.0219 45.3946 79.9979 45.2394 79.9677 45.0852C79.9365 44.931 79.899 44.779 79.8531 44.6279C79.8073 44.4769 79.7542 44.329 79.6948 44.1842C79.6344 44.0383 79.5677 43.8967 79.4927 43.7581C79.4188 43.6185 79.3385 43.4842 79.251 43.3529C79.1635 43.2227 79.0698 43.0967 78.9698 42.9748C78.8708 42.8529 78.7646 42.7362 78.6542 42.6248L75.1125 39.0831C75.1958 38.73 75.2385 38.3727 75.2406 38.0092C75.2396 37.3727 75.1177 36.7592 74.8729 36.1706C74.6292 35.5821 74.2813 35.0623 73.8302 34.6123L70.2885 31.0706C70.3719 30.7175 70.4146 30.3592 70.4167 29.9967C70.4156 29.3592 70.2938 28.7467 70.049 28.1581C69.8052 27.5696 69.4573 27.0498 69.0063 26.5998L67.1313 24.7248C66.8427 24.4362 66.5219 24.1883 66.1708 23.981C65.8188 23.7737 65.4458 23.6144 65.0542 23.5029C64.6615 23.3904 64.2615 23.329 63.8531 23.3185C63.4448 23.3092 63.0417 23.3498 62.6438 23.4425L59.0865 19.9165C58.975 19.805 58.8583 19.6987 58.7365 19.5987C58.6146 19.4987 58.4885 19.404 58.3573 19.3165C58.226 19.229 58.0906 19.1477 57.9521 19.0727C57.8125 18.9987 57.6708 18.931 57.525 18.8706C57.3792 18.8102 57.2302 18.756 57.0802 18.7102C56.9292 18.6644 56.776 18.6258 56.6208 18.5956C56.4667 18.5644 56.3104 18.5415 56.1531 18.5258C55.9958 18.5102 55.8385 18.5029 55.6813 18.5029C55.5229 18.5029 55.3656 18.5102 55.2083 18.5258C55.0521 18.5415 54.8958 18.5644 54.7406 18.5956C54.5865 18.6258 54.4333 18.6644 54.2823 18.7102C54.1313 18.756 53.9833 18.8102 53.8375 18.8706C53.6917 18.931 53.549 18.9987 53.4104 19.0727C53.2708 19.1477 53.1365 19.229 53.0052 19.3165C52.874 19.404 52.7469 19.4987 52.625 19.5987C52.5042 19.6987 52.3875 19.805 52.276 19.9165L50.0646 22.1123L47.4521 19.5165C47.6563 18.8415 47.8125 18.156 47.9219 17.4602C48.0302 16.7644 48.0896 16.0644 48.1 15.3592C48.1115 14.655 48.0729 13.9529 47.9854 13.254C47.899 12.555 47.7625 11.8654 47.5792 11.1852C47.3958 10.505 47.1656 9.84042 46.8896 9.1925C46.6125 8.54458 46.2927 7.91854 45.9292 7.31541C45.5646 6.71229 45.1604 6.13729 44.7167 5.59041C44.2719 5.04354 43.7927 4.53 43.276 4.04979C42.7604 3.56958 42.2135 3.12896 41.6354 2.72479C41.0583 2.32166 40.4552 1.96021 39.8271 1.64146C39.199 1.32166 38.5521 1.04771 37.8854 0.819581C37.2188 0.590414 36.5396 0.409164 35.8479 0.275831C35.1562 0.141456 34.4583 0.0560393 33.7552 0.0195809C33.051 -0.0158359 32.349 -0.00333566 31.6469 0.0581225C30.9448 0.119581 30.251 0.229998 29.5646 0.389373C28.8781 0.547706 28.2063 0.753956 27.5479 1.00604C27.2969 1.10604 27.0844 1.26021 26.9115 1.4675C26.7375 1.67479 26.624 1.91125 26.5708 2.17583C26.5177 2.44146 26.5302 2.70396 26.6104 2.96229C26.6896 3.22062 26.826 3.44458 27.0188 3.63416L34.5833 11.1665C34.9094 11.4915 35.1604 11.8665 35.3385 12.2915C35.5156 12.7154 35.6063 13.1581 35.6094 13.6185C35.6219 14.0279 35.5563 14.4237 35.4115 14.8071C35.2677 15.1904 35.0552 15.531 34.776 15.83C34.6156 15.9883 34.4417 16.1279 34.2542 16.2508C34.0656 16.3737 33.8667 16.4758 33.6583 16.5592C33.449 16.6415 33.2344 16.7019 33.0135 16.7415C32.7917 16.78 32.5688 16.7967 32.3448 16.7904C32.1198 16.7842 31.8979 16.756 31.6792 16.705C31.4604 16.655 31.249 16.5821 31.0448 16.4894C30.8406 16.3956 30.6479 16.2821 30.4667 16.1498C30.2854 16.0175 30.1188 15.8685 29.9677 15.7019L22.4521 8.15396C22.4052 8.10812 22.3563 8.06437 22.3042 8.02375C22.2521 7.98416 22.1979 7.94666 22.1417 7.91333C22.0854 7.88 22.0271 7.84979 21.9667 7.82375C21.9073 7.79667 21.8458 7.77479 21.7823 7.75604C21.7198 7.73729 21.6563 7.72166 21.5906 7.71125C21.526 7.69979 21.4615 7.6925 21.3958 7.68937C21.3302 7.68729 21.2646 7.68833 21.199 7.6925C21.1333 7.69771 21.0688 7.70708 21.0042 7.71958C20.9406 7.73312 20.8771 7.74979 20.8146 7.77062C20.7521 7.79146 20.6917 7.81646 20.6323 7.84458C20.5729 7.87271 20.5156 7.905 20.4604 7.93937C20.4052 7.97479 20.3521 8.01333 20.301 8.055C20.251 8.09771 20.2031 8.1425 20.1583 8.18937C20.1125 8.23729 20.0708 8.28729 20.0323 8.34042C19.9927 8.39354 19.9573 8.44875 19.925 8.50604C19.8927 8.56333 19.8646 8.62167 19.8396 8.68312C19.6927 9.05917 19.5604 9.44146 19.4438 9.83C19.3271 10.2175 19.226 10.6092 19.1417 11.005C19.0563 11.3998 18.9875 11.7987 18.9354 12.1998C18.8823 12.6019 18.8458 13.004 18.826 13.4081C18.8052 13.8123 18.8021 14.2175 18.8146 14.6217C18.8271 15.0258 18.8563 15.43 18.901 15.8321C18.9458 16.2342 19.0073 16.6342 19.0854 17.031C19.1625 17.4279 19.2563 17.8217 19.3656 18.2112C19.475 18.6008 19.6 18.9862 19.7406 19.3654C19.8802 19.7446 20.0365 20.1185 20.2073 20.4852C20.3771 20.8519 20.5625 21.2123 20.7625 21.5644C20.9625 21.9165 21.176 22.2592 21.4031 22.5946C21.6302 22.929 21.8708 23.254 22.125 23.5696C22.3792 23.8842 22.6448 24.1894 22.9229 24.4831C23.2021 24.7769 23.4917 25.0592 23.7927 25.329C24.0938 25.5998 24.4052 25.8571 24.7271 26.1029C25.2021 26.4737 25.6979 26.8154 26.2135 27.1269C26.7302 27.4383 27.2635 27.7175 27.8135 27.9654C28.3635 28.2123 28.926 28.4248 29.5021 28.6029C30.0781 28.7821 30.6625 28.9248 31.2552 29.0331C31.849 29.1404 32.4469 29.2123 33.0479 29.2477C33.65 29.2831 34.2521 29.2821 34.8542 29.2446C35.4552 29.2071 36.0531 29.1331 36.6458 29.0227C37.2385 28.9123 37.8219 28.7675 38.3979 28.5862L38.5896 28.779L32.0833 35.205C31.9333 35.356 31.8177 35.531 31.7375 35.7279C31.6573 35.9248 31.6177 36.13 31.6188 36.3425V50.1415L27.5479 54.4998L26.2979 53.2342C26.224 53.1592 26.1427 53.0915 26.0542 53.0331C25.9667 52.9738 25.874 52.9237 25.776 52.8831C25.6792 52.8425 25.5781 52.8123 25.475 52.7915C25.3708 52.7706 25.2656 52.7602 25.1604 52.7602C25.0542 52.7602 24.95 52.7706 24.8458 52.7915C24.7427 52.8123 24.6417 52.8425 24.5438 52.8831C24.4458 52.9237 24.3531 52.9738 24.2656 53.0331C24.1781 53.0915 24.0969 53.1592 24.0229 53.2342L16.0094 61.2467C15.9344 61.3217 15.8677 61.4029 15.8083 61.4904C15.749 61.5779 15.7 61.6706 15.6583 61.7685C15.6177 61.8665 15.5875 61.9665 15.5667 62.0706C15.5458 62.1738 15.5354 62.279 15.5354 62.3842C15.5354 62.4904 15.5458 62.5956 15.5667 62.6987C15.5875 62.8029 15.6177 62.9029 15.6583 63.0008C15.7 63.0988 15.749 63.1915 15.8083 63.279C15.8677 63.3665 15.9344 63.4477 16.0094 63.5227L16.4906 63.9873L-0.015625 80.5415L2.25938 82.8175L18.75 66.3112L34.1188 81.68L19.2146 96.5675L21.4906 98.8425L36.3781 83.9394L36.8427 84.4196C36.9177 84.4946 36.999 84.5623 37.0865 84.6206C37.174 84.68 37.2667 84.73 37.3646 84.7706C37.4625 84.8112 37.5625 84.8425 37.6667 84.8633C37.7698 84.8831 37.875 84.8935 37.9813 84.8935C38.0865 84.8935 38.1917 84.8831 38.2948 84.8633C38.399 84.8425 38.499 84.8112 38.5969 84.7706C38.6948 84.73 38.7875 84.68 38.875 84.6206C38.9625 84.5623 39.0438 84.4946 39.1188 84.4196L47.1313 76.4071C47.2063 76.3321 47.274 76.2519 47.3323 76.1633C47.3917 76.0758 47.4417 75.9831 47.4823 75.8852C47.5229 75.7883 47.5531 75.6873 47.574 75.5831C47.5948 75.48 47.6052 75.3748 47.6052 75.2696C47.6052 75.1633 47.5948 75.0592 47.574 74.955C47.5531 74.8508 47.5229 74.7508 47.4823 74.6529C47.4417 74.555 47.3917 74.4623 47.3323 74.3748C47.274 74.2873 47.2063 74.206 47.1313 74.131L46.25 73.2665L49.9844 69.2592H58.125C58.3375 69.2613 58.5427 69.2217 58.7406 69.1404C58.9375 69.0602 59.1115 68.9446 59.2625 68.7946L68.9906 59.0831L70.176 60.2529C69.9948 60.8279 69.8479 61.4113 69.7375 62.0029C69.626 62.5956 69.5521 63.1915 69.5135 63.7935C69.476 64.3946 69.474 64.9956 69.5094 65.5967C69.5448 66.1988 69.6156 66.7956 69.724 67.3883C69.8313 67.981 69.975 68.5654 70.1542 69.1404C70.3333 69.7154 70.5458 70.2779 70.7938 70.8269C71.0406 71.3769 71.3208 71.9092 71.6333 72.4238C71.9458 72.9394 72.2875 73.4331 72.6604 73.9071C73.0167 74.3633 73.3969 74.7977 73.8031 75.2113C74.2083 75.6237 74.6354 76.0133 75.0844 76.3779C75.5333 76.7425 76.0021 77.081 76.4896 77.3935C76.9771 77.705 77.4802 77.9894 78 78.2446C78.5188 78.4998 79.051 78.7248 79.5958 78.9196C80.1406 79.1144 80.6948 79.279 81.2583 79.4112C81.8219 79.5435 82.3906 79.6446 82.9656 79.7133C83.5396 79.781 84.1167 79.8175 84.6958 79.8206C86.5708 79.8258 88.376 79.4737 90.1125 78.7633C90.3635 78.6623 90.576 78.5092 90.749 78.3019C90.9219 78.0946 91.0354 77.8581 91.0896 77.5925C91.1396 77.33 91.125 77.0706 91.0458 76.8154C90.9667 76.5602 90.8313 76.3383 90.6406 76.1508L83.0771 68.6029C82.75 68.2779 82.4979 67.9029 82.3208 67.479C82.1427 67.054 82.0531 66.6113 82.051 66.1508C82.0531 65.7383 82.1313 65.3404 82.2865 64.9581C82.4417 64.5758 82.6625 64.2363 82.949 63.9394C83.1073 63.7883 83.2792 63.654 83.4635 63.5373C83.6479 63.4196 83.8427 63.3217 84.0469 63.2425C84.251 63.1644 84.4604 63.106 84.676 63.0685C84.8917 63.031 85.1094 63.0144 85.3281 63.0196C85.5469 63.0248 85.7625 63.0519 85.976 63.0988C86.1896 63.1467 86.3969 63.2154 86.5969 63.304C86.7969 63.3925 86.9865 63.4998 87.1656 63.6248C87.3438 63.7508 87.5094 63.8925 87.6604 64.0508L95.2406 71.5998C95.4302 71.7873 95.6521 71.9196 95.9073 71.9956C96.1625 72.0727 96.4208 72.0842 96.6823 72.0321C96.9458 71.98 97.1813 71.8685 97.3885 71.6977C97.5958 71.5279 97.75 71.3185 97.8521 71.0706C98.1208 70.3925 98.3375 69.6998 98.5042 68.9894C98.6698 68.28 98.7833 67.5623 98.8438 66.8363C98.9042 66.1102 98.9115 65.3831 98.8646 64.656C98.8177 63.929 98.7188 63.2092 98.5656 62.4967C98.4135 61.7842 98.2094 61.0863 97.9552 60.404C97.7 59.7206 97.3958 59.0612 97.0438 58.4227C96.6917 57.7852 96.2948 57.1758 95.8531 56.5967C95.4104 56.0175 94.9292 55.4738 94.4073 54.9644ZM76.8906 46.0227C76.8927 46.2352 76.8521 46.4404 76.7719 46.6373C76.6917 46.8352 76.576 47.0092 76.426 47.1602L69.8563 53.6987L69.7115 53.8425C69.6375 53.9185 69.5563 53.9852 69.4677 54.0446C69.3802 54.1029 69.2875 54.1529 69.1896 54.1935C69.0927 54.2342 68.9917 54.2654 68.8875 54.2863C68.7844 54.3071 68.6792 54.3175 68.574 54.3175C68.4677 54.3175 68.3635 54.3071 68.2594 54.2863C68.1562 54.2654 68.0552 54.2342 67.9573 54.1935C67.8594 54.1529 67.7667 54.1029 67.6792 54.0446C67.5917 53.9852 67.5104 53.9185 67.4354 53.8425L65.5448 51.9675C65.4698 51.8935 65.4031 51.8123 65.3438 51.7248C65.2844 51.6373 65.2344 51.5446 65.1938 51.4467C65.1531 51.3488 65.1229 51.2477 65.1021 51.1446C65.0813 51.0404 65.0708 50.9362 65.0708 50.83C65.0708 50.7248 65.0813 50.6196 65.1021 50.5154C65.1229 50.4123 65.1531 50.3112 65.1938 50.2133C65.2344 50.1165 65.2844 50.0238 65.3438 49.9352C65.4031 49.8477 65.4698 49.7665 65.5448 49.6925L66.4906 48.7633L73.3979 41.8717L76.4427 44.8206C76.5979 44.981 76.7146 45.1654 76.7917 45.3748C76.8698 45.5842 76.9031 45.7998 76.8906 46.0227ZM72.0833 38.0092C72.0844 38.2227 72.0448 38.4279 71.9646 38.6248C71.8833 38.8217 71.7688 38.9967 71.6188 39.1477L64.2313 46.4227L63.2854 47.3685C63.2104 47.4435 63.1292 47.5112 63.0417 47.5696C62.9542 47.629 62.8615 47.679 62.7635 47.7196C62.6656 47.7602 62.5656 47.7904 62.4615 47.8112C62.3583 47.8321 62.2531 47.8425 62.1479 47.8425C62.0417 47.8425 61.9365 47.8321 61.8333 47.8112C61.7292 47.7904 61.6292 47.7602 61.5313 47.7196C61.4333 47.679 61.3406 47.629 61.2531 47.5696C61.1656 47.5112 61.0844 47.4435 61.0094 47.3685L60.8813 47.2404C61.6677 46.8665 62.3729 46.3748 62.9969 45.7665L64.8875 43.8915C64.9625 43.8165 65.0302 43.7352 65.0885 43.6477C65.1479 43.5602 65.1979 43.4675 65.2385 43.3696C65.2792 43.2717 65.3104 43.1717 65.3313 43.0675C65.351 42.9633 65.3615 42.8592 65.3615 42.7529C65.3615 42.6477 65.351 42.5425 65.3313 42.4394C65.3104 42.3352 65.2792 42.2342 65.2385 42.1373C65.1979 42.0394 65.1479 41.9467 65.0885 41.8592C65.0302 41.7706 64.9625 41.6904 64.8875 41.6154L62.8042 39.5477L68.574 33.7946L71.6344 36.8081C71.7865 36.9696 71.901 37.155 71.976 37.3633C72.051 37.5727 72.0813 37.7883 72.0677 38.0092H72.0833ZM64.9042 26.9842L66.8271 28.7946C66.9021 28.8696 66.9688 28.9508 67.0281 29.0383C67.0875 29.1258 67.1375 29.2185 67.1781 29.3165C67.2188 29.4144 67.249 29.5144 67.2698 29.6185C67.2906 29.7227 67.301 29.8269 67.301 29.9331C67.301 30.0383 67.2906 30.1435 67.2698 30.2467C67.249 30.3508 67.2188 30.4519 67.1781 30.5487C67.1375 30.6467 67.0875 30.7394 67.0281 30.8269C66.9688 30.9154 66.9021 30.9956 66.8271 31.0706L60.5927 37.2883L56.426 33.1383L62.6604 26.9196C62.7365 26.8508 62.8188 26.7894 62.9063 26.7352C62.9938 26.6821 63.0865 26.6373 63.1833 26.6008C63.2792 26.5654 63.3781 26.5383 63.4802 26.5217C63.5823 26.505 63.6844 26.4987 63.7875 26.5019C63.8896 26.504 63.9917 26.5175 64.0917 26.5394C64.1927 26.5623 64.2896 26.5946 64.3844 26.6352C64.4792 26.6769 64.5677 26.7269 64.6531 26.7852C64.7375 26.8446 64.8156 26.9102 64.8875 26.9842H64.9042ZM54.5833 22.1758C54.6583 22.0998 54.7396 22.0321 54.8281 21.9717C54.9156 21.9112 55.0094 21.8612 55.1073 21.8196C55.2063 21.7779 55.3073 21.7467 55.4125 21.7258C55.5167 21.705 55.6229 21.6946 55.7292 21.6946C55.8354 21.6946 55.9417 21.705 56.0458 21.7258C56.151 21.7467 56.2521 21.7779 56.351 21.8196C56.449 21.8612 56.5427 21.9112 56.6302 21.9717C56.7188 22.0321 56.8 22.0998 56.875 22.1758L59.8875 25.1894L54.1188 30.9425L50.5125 27.3529C50.3208 27.1602 50.0958 27.0165 49.8875 26.8394L54.5833 22.1758ZM38.2375 25.2373C37.7656 25.4269 37.2844 25.5852 36.7917 25.7112C36.3 25.8383 35.8021 25.9321 35.2979 25.9946C34.7938 26.056 34.2875 26.0852 33.7792 26.081C33.2719 26.0769 32.7656 26.0394 32.2625 25.9696C31.7594 25.8998 31.2625 25.7977 30.7729 25.6623C30.2833 25.5279 29.8042 25.3623 29.3365 25.1654C28.8677 24.9675 28.4146 24.7415 27.975 24.4852C27.5365 24.229 27.1167 23.9456 26.7146 23.6342C26.2938 23.3123 25.8958 22.9644 25.5208 22.5894C25.1469 22.2144 24.799 21.8165 24.4771 21.3956C24.1552 20.9737 23.8625 20.5331 23.6 20.0737C23.3365 19.6133 23.1052 19.1373 22.9052 18.6467C22.7052 18.156 22.5385 17.654 22.4063 17.1415C22.2729 16.6279 22.174 16.1081 22.1104 15.5821C22.0458 15.056 22.0177 14.5279 22.024 13.9987C22.0302 13.4685 22.0708 12.9415 22.1479 12.4165L27.7729 18.0415C27.9219 18.1935 28.0781 18.3383 28.2417 18.4748C28.4052 18.6112 28.575 18.7394 28.751 18.8592C28.9271 18.98 29.1083 19.0904 29.2958 19.1935C29.4823 19.2956 29.674 19.3883 29.8698 19.4727C30.0656 19.556 30.2656 19.63 30.4688 19.6946C30.6719 19.7581 30.8771 19.8123 31.0854 19.8571C31.2948 19.9008 31.5042 19.9352 31.7167 19.9592C31.9281 19.9821 32.1406 19.9956 32.3531 19.9987C32.5667 20.0019 32.7792 19.9946 32.9917 19.9769C33.2042 19.9581 33.4146 19.931 33.625 19.8925C33.8344 19.854 34.0417 19.805 34.2458 19.7467C34.451 19.6883 34.6531 19.6196 34.851 19.5415C35.049 19.4633 35.2427 19.3758 35.4323 19.279C35.6219 19.181 35.8063 19.0758 35.9865 18.9602C36.1656 18.8446 36.3385 18.7217 36.5063 18.5894C36.6729 18.4571 36.8333 18.3175 36.9875 18.1696C37.2813 17.8748 37.5438 17.554 37.774 17.2081C38.0042 16.8612 38.199 16.4956 38.3563 16.1102C38.5146 15.7258 38.6333 15.329 38.7135 14.9196C38.7927 14.5112 38.8323 14.0987 38.8302 13.6831C38.8302 13.2446 38.7865 12.8102 38.701 12.38C38.6146 11.9508 38.4865 11.5331 38.3177 11.129C38.1479 10.7248 37.9406 10.3415 37.6958 9.97791C37.45 9.61437 37.1708 9.27896 36.8594 8.97166L31.2177 3.28208C31.6792 3.21333 32.1427 3.17166 32.6094 3.15708C33.075 3.14146 33.5406 3.155 34.0052 3.19458C34.4698 3.23521 34.9302 3.30187 35.3875 3.39666C35.8438 3.49041 36.2938 3.61125 36.7365 3.75812C37.1792 3.905 37.6115 4.07791 38.0333 4.27583C38.4563 4.47375 38.8656 4.69562 39.2615 4.94146C39.6583 5.18729 40.0385 5.45604 40.4031 5.74666C40.7677 6.03729 41.1146 6.34771 41.4427 6.68C41.8521 7.07896 42.2313 7.505 42.5781 7.96021C42.926 8.41437 43.2375 8.8925 43.5146 9.39354C43.7917 9.89354 44.0302 10.4123 44.2313 10.9487C44.4313 11.4842 44.5917 12.0321 44.7115 12.5915C44.8313 13.1508 44.9094 13.7165 44.9458 14.2873C44.9833 14.8581 44.9771 15.429 44.9302 15.9987C44.8823 16.5696 44.7938 17.1331 44.6625 17.6904C44.5323 18.2477 44.3615 18.7915 44.151 19.3237C44.0917 19.4696 44.0552 19.6206 44.0417 19.7769C44.0271 19.9331 44.0354 20.0883 44.0667 20.2425C44.0979 20.3956 44.151 20.5425 44.225 20.68C44.3 20.8185 44.3927 20.9435 44.5031 21.055L47.8208 24.3883L46.8427 25.3654C46.3354 25.2519 45.8229 25.1925 45.3031 25.1894C44.7833 25.1852 44.2688 25.2373 43.7604 25.3435C43.2521 25.4498 42.7604 25.6092 42.2854 25.8206C41.8115 26.0321 41.3646 26.2915 40.9458 26.5998L39.9521 25.5894C39.8406 25.479 39.7156 25.3862 39.5781 25.3123C39.4396 25.2373 39.2938 25.1852 39.1396 25.154C38.9854 25.1217 38.8302 25.1133 38.674 25.1279C38.5177 25.1425 38.3667 25.179 38.2208 25.2373H38.2375ZM37.9813 81.0227L19.4073 62.4487L25.1604 56.6956L43.7344 75.2696L37.9813 81.0227ZM57.4677 66.055H49.2792C49.0563 66.055 48.8438 66.0998 48.6406 66.1894C48.4375 66.279 48.2604 66.405 48.1094 66.5675L43.9906 71.006L29.824 56.8237L34.3906 51.9196C34.5292 51.7717 34.6354 51.604 34.7104 51.4165C34.7854 51.2279 34.8229 51.0321 34.824 50.83V37.08L42.2917 29.6279C42.4906 29.4394 42.7063 29.2696 42.9375 29.1217C43.1688 28.9737 43.4125 28.8487 43.6677 28.7467C43.9229 28.6446 44.1854 28.5675 44.4552 28.5154C44.725 28.4633 44.9979 28.4373 45.2729 28.4373C45.5469 28.4373 45.8198 28.4633 46.0896 28.5154C46.3594 28.5675 46.6219 28.6446 46.8771 28.7467C47.1323 28.8487 47.376 28.9737 47.6073 29.1217C47.8385 29.2696 48.0542 29.4394 48.2531 29.6279L61.474 42.8175L60.7375 43.555C60.626 43.6665 60.5094 43.7738 60.3875 43.8748C60.2646 43.9748 60.1385 44.0696 60.0073 44.1581C59.876 44.2467 59.7406 44.3279 59.601 44.4029C59.4615 44.4779 59.3188 44.5456 59.1729 44.6071C59.026 44.6675 58.8781 44.7217 58.726 44.7675C58.575 44.8133 58.4219 44.8519 58.2667 44.8831C58.1115 44.9144 57.9552 44.9373 57.7979 44.9529C57.6396 44.9685 57.4823 44.9769 57.324 44.9769C57.1656 44.9769 57.0073 44.9685 56.85 44.9529C56.6927 44.9373 56.5365 44.9144 56.3813 44.8831C56.226 44.8519 56.0729 44.8133 55.9208 44.7675C55.7698 44.7217 55.6208 44.6675 55.475 44.6071C55.3292 44.5456 55.1854 44.4779 55.0469 44.4029C54.9073 44.3279 54.7719 44.2467 54.6406 44.1581C54.5094 44.0696 54.3823 43.9748 54.2604 43.8748C54.1385 43.7738 54.0219 43.6665 53.9104 43.555L47.2115 36.8081C47.1365 36.7331 47.0552 36.6665 46.9677 36.6081C46.8802 36.5498 46.7875 36.4998 46.6896 36.4592C46.5917 36.4196 46.4917 36.3883 46.3875 36.3685C46.2844 36.3477 46.1792 36.3373 46.074 36.3373C45.9688 36.3373 45.8635 36.3477 45.7604 36.3685C45.6563 36.3894 45.5563 36.4196 45.4583 36.4602C45.3615 36.5008 45.2688 36.5498 45.1802 36.6081C45.0927 36.6675 45.0115 36.7342 44.9365 36.8081C44.8625 36.8831 44.7958 36.9644 44.7365 37.0519C44.6781 37.1404 44.6281 37.2331 44.5885 37.33C44.5479 37.4279 44.5167 37.529 44.4969 37.6321C44.476 37.7352 44.4656 37.8404 44.4656 37.9456C44.4656 38.0519 44.476 38.156 44.4958 38.2592C44.5167 38.3633 44.5469 38.4633 44.5875 38.5612C44.6281 38.6592 44.6771 38.7519 44.7365 38.8394C44.7948 38.9269 44.8615 39.0081 44.9354 39.0831C45.2146 39.3602 45.4792 39.6508 45.7292 39.954C45.9792 40.2571 46.2135 40.5717 46.4323 40.8977C46.6521 41.2237 46.8542 41.5602 47.0396 41.9071C47.226 42.2529 47.3938 42.6071 47.5448 42.9706C47.6958 43.3331 47.8281 43.7029 47.9427 44.0779C48.0573 44.454 48.1531 44.8352 48.2302 45.2206C48.3073 45.606 48.3646 45.9935 48.4031 46.3852C48.4427 46.7758 48.4615 47.1675 48.4615 47.5612C48.4615 47.954 48.4427 48.3456 48.4031 48.7373C48.3646 49.1279 48.3073 49.5165 48.2302 49.9019C48.1531 50.2873 48.0573 50.6675 47.9427 51.0435C47.8281 51.4196 47.6958 51.7883 47.5448 52.1519C47.3938 52.5144 47.226 52.8685 47.0396 53.2154C46.8542 53.5612 46.6521 53.8977 46.4323 54.2238C46.2135 54.5498 45.9792 54.8654 45.7292 55.1685C45.4792 55.4717 45.2146 55.7612 44.9354 56.0383L47.2115 58.3144C47.9198 57.6092 48.551 56.8425 49.1073 56.0123C49.6635 55.1821 50.1323 54.306 50.5146 53.3831C50.8969 52.4602 51.1854 51.5092 51.3792 50.529C51.5729 49.5487 51.6688 48.5602 51.6667 47.5612C51.6698 46.9279 51.6323 46.2977 51.5542 45.6696L51.651 45.7665C52.0146 46.1352 52.4115 46.4665 52.8396 46.7592C53.2677 47.0519 53.7198 47.3008 54.1969 47.505C54.674 47.7102 55.1656 47.8665 55.6729 47.9758C56.1802 48.0852 56.6927 48.1446 57.2115 48.154L58.8146 49.756C59.2417 50.1821 59.7323 50.5144 60.2854 50.755C60.8385 50.9956 61.4167 51.1279 62.0188 51.1508C62.0427 51.7529 62.174 52.331 62.4146 52.8842C62.6552 53.4373 62.9885 53.9279 63.4135 54.356L65.224 56.0383C65.6104 56.431 66.0531 56.7404 66.5542 56.9675L57.4677 66.055ZM95.5448 67.4331L89.9042 61.8081C89.7542 61.655 89.5979 61.5102 89.4354 61.3737C89.2719 61.2363 89.1021 61.1081 88.926 60.9873C88.75 60.8665 88.5688 60.755 88.3823 60.6529C88.1948 60.5498 88.0042 60.456 87.8073 60.3727C87.6115 60.2883 87.4125 60.2144 87.2094 60.1498C87.0052 60.0852 86.8 60.031 86.5917 59.9862C86.3823 59.9425 86.1729 59.9081 85.9604 59.8842C85.749 59.8602 85.5365 59.8477 85.3229 59.8446C85.1094 59.8415 84.8969 59.8488 84.6844 59.8665C84.4719 59.8842 84.2604 59.9123 84.051 59.9508C83.8417 59.9894 83.6344 60.0383 83.4292 60.0967C83.224 60.156 83.0229 60.2248 82.824 60.3029C82.626 60.381 82.4323 60.4696 82.2427 60.5675C82.0531 60.6644 81.8688 60.7706 81.6896 60.8862C81.5104 61.0019 81.3365 61.1258 81.1698 61.2581C81.0031 61.3915 80.8427 61.531 80.6896 61.68C80.3938 61.9717 80.1313 62.2904 79.899 62.6352C79.6677 62.98 79.4729 63.3446 79.3156 63.729C79.1573 64.1123 79.0385 64.5081 78.9594 64.9165C78.8802 65.3238 78.8427 65.7352 78.8458 66.1508C78.8448 66.5904 78.8875 67.0258 78.9729 67.4571C79.0594 67.8883 79.1865 68.3071 79.3563 68.7133C79.525 69.1185 79.7323 69.504 79.9792 69.8685C80.225 70.2331 80.5042 70.5696 80.8177 70.8779L86.4427 76.4873C85.9177 76.5602 85.3906 76.5998 84.8615 76.6029C84.3323 76.6071 83.8052 76.5769 83.2792 76.5113C82.7542 76.4456 82.2354 76.3467 81.7229 76.2133C81.2104 76.079 80.7094 75.9123 80.2188 75.7133C79.7281 75.5133 79.2531 75.2821 78.7938 75.0206C78.3333 74.7581 77.8927 74.4665 77.4708 74.1467C77.049 73.8258 76.65 73.48 76.274 73.1071C75.8979 72.7342 75.5479 72.3383 75.224 71.9196C74.9135 71.5206 74.6302 71.1029 74.374 70.6665C74.1177 70.23 73.8906 69.7779 73.6938 69.3123C73.4958 68.8456 73.3302 68.3685 73.1958 67.881C73.0604 67.3925 72.9583 66.8988 72.8885 66.3967C72.8188 65.8956 72.7813 65.3925 72.7771 64.8863C72.7729 64.38 72.8021 63.8758 72.8635 63.3727C72.926 62.8706 73.0198 62.3748 73.1469 61.8842C73.274 61.3946 73.4323 60.9144 73.6219 60.4456C73.6781 60.2988 73.7125 60.1467 73.724 59.9894C73.7365 59.8321 73.725 59.6758 73.6906 59.5217C73.6563 59.3685 73.601 59.2227 73.524 59.0852C73.4458 58.9477 73.351 58.8237 73.2375 58.7144L71.3458 56.8237L72.051 56.1185L75.8979 52.305L77.7885 54.1956C77.9 54.3081 78.026 54.4019 78.1656 54.4769C78.3052 54.5519 78.4531 54.606 78.6083 54.6373C78.7635 54.6685 78.9208 54.6769 79.0781 54.6613C79.2365 54.6467 79.3885 54.6081 79.5354 54.5477C79.776 54.4592 80.0198 54.3769 80.2656 54.304C80.5115 54.23 80.7604 54.1644 81.0104 54.1071C81.2604 54.0487 81.5125 53.9998 81.7667 53.9581C82.0198 53.9165 82.275 53.8831 82.5302 53.8581C82.7865 53.8331 83.0417 53.8165 83.299 53.8081C83.5552 53.7998 83.8125 53.7998 84.0698 53.8071C84.326 53.8154 84.5823 53.8321 84.8385 53.856C85.0938 53.881 85.349 53.9133 85.6021 53.954C85.8563 53.9946 86.1083 54.0446 86.3583 54.1008C86.6083 54.1581 86.8573 54.2238 87.1031 54.2967C87.35 54.3696 87.5938 54.4508 87.8344 54.5394C88.076 54.6279 88.3135 54.7248 88.5479 54.829C88.7833 54.9331 89.0146 55.0446 89.2427 55.1633C89.4698 55.2821 89.6938 55.4092 89.9135 55.5425C90.1323 55.6758 90.3479 55.8165 90.5583 55.9633C90.7688 56.1102 90.974 56.2644 91.175 56.4248C91.376 56.5852 91.5708 56.7519 91.7604 56.9248C91.951 57.0977 92.1344 57.2769 92.3125 57.4623C92.4917 57.6467 92.6635 57.8373 92.8292 58.0331C92.9958 58.23 93.1552 58.431 93.3083 58.6373C93.4615 58.8435 93.6083 59.054 93.7479 59.2696C93.8875 59.4852 94.0198 59.706 94.1448 59.93C94.2708 60.154 94.3885 60.3821 94.499 60.6144C94.6094 60.8456 94.7125 61.081 94.8083 61.3196C94.9042 61.5581 94.9917 61.7987 95.0719 62.0435C95.1521 62.2873 95.224 62.5342 95.2885 62.7821C95.3521 63.031 95.4083 63.2821 95.4563 63.5342C95.5042 63.7863 95.5448 64.0404 95.576 64.2956C95.6083 64.5498 95.6313 64.806 95.6469 65.0623C95.6615 65.3185 95.6688 65.5758 95.6677 65.8321C95.6667 66.0894 95.6573 66.3456 95.6385 66.6019C95.6208 66.8581 95.5948 67.1144 95.5604 67.3685L95.5448 67.4331Z" fill="#F94A23"/>
</svg>
