<svg width="100" height="100" viewBox="0 0 100 100" fill="none" xmlns="http://www.w3.org/2000/svg">
<g clip-path="url(#clip0_223_6)">
<mask id="mask0_223_6" style="mask-type:luminance" maskUnits="userSpaceOnUse" x="8" y="0" width="82" height="100">
<path d="M8.54584 0H89.9458V100H8.54584V0Z" fill="white"/>
</mask>
<g mask="url(#mask0_223_6)">
<path d="M49.2533 100L48.5637 99.6604C46.1793 98.474 43.8637 97.1677 41.6148 95.7417C39.3668 94.3146 37.1981 92.776 35.1095 91.1229C33.021 89.4708 31.0241 87.7156 29.1179 85.8552C27.2127 83.9958 25.4085 82.0417 23.7054 79.9948L23.2616 79.4563C13.7835 67.7771 8.56267 52.9646 8.56267 37.7365V20.8271L10.0637 20.7802C11.896 20.725 13.721 20.5698 15.5366 20.3156C17.3533 20.0604 19.1491 19.7073 20.9262 19.2552C22.7043 18.8031 24.4512 18.2552 26.1679 17.6115C27.8856 16.9677 29.5627 16.2323 31.1991 15.4052C32.8356 14.5771 34.421 13.6625 35.9575 12.6615C37.4939 11.6594 38.97 10.5771 40.3877 9.41354C41.8054 8.25 43.1543 7.0125 44.4366 5.7C45.7179 4.38854 46.9241 3.01146 48.0543 1.56771L49.272 0L50.4991 1.55729C51.6293 3.00104 52.8356 4.37813 54.1168 5.68958C55.3981 7 56.7481 8.2375 58.1648 9.4C59.5814 10.5635 61.0585 11.6458 62.5939 12.6469C64.1293 13.6479 65.7158 14.5615 67.3512 15.3896C68.9877 16.2167 70.6637 16.951 72.3804 17.5948C74.097 18.2385 75.8439 18.7854 77.621 19.2375C79.3981 19.6885 81.1939 20.0427 83.0095 20.2969C84.8241 20.5521 86.6481 20.7063 88.4814 20.7615L89.9825 20.8083V37.7167C89.9825 52.9458 84.7616 67.7677 75.2825 79.4375L74.8387 79.975C73.1345 82.026 71.3283 83.9833 69.42 85.8458C67.5116 87.7083 65.5116 89.4656 63.42 91.1198C61.3283 92.774 59.1564 94.3146 56.9043 95.7417C54.6512 97.1688 52.3314 98.475 49.9429 99.6604L49.2533 100ZM11.6679 23.8104V37.7365C11.6679 52.2563 16.6439 66.3708 25.6793 77.4927L26.1033 78.0115C29.2929 81.8521 32.8366 85.3302 36.7345 88.449C40.6335 91.5667 44.8064 94.2583 49.2533 96.526C53.7075 94.2583 57.8866 91.5646 61.7908 88.4458C65.696 85.326 69.246 81.8448 72.4408 78.0021L72.8658 77.4833C81.9002 66.3615 86.8762 52.2375 86.8762 37.7167V23.801C85.0773 23.6958 83.2877 23.5 81.5085 23.2135C79.7293 22.9271 77.9689 22.551 76.2273 22.0854C74.4866 21.6208 72.7731 21.0688 71.0887 20.4292C69.4033 19.7896 67.7554 19.0667 66.1429 18.2604C64.5314 17.4531 62.9648 16.5677 61.4429 15.6021C59.922 14.6365 58.4523 13.5958 57.0366 12.4813C55.621 11.3656 54.2648 10.1823 52.9689 8.93021C51.6731 7.67708 50.4439 6.3625 49.2814 4.98438C48.1189 6.36354 46.8908 7.68021 45.5939 8.93438C44.2981 10.1875 42.9418 11.3729 41.5252 12.4885C40.1085 13.6042 38.6398 14.6458 37.1168 15.6125C35.595 16.5792 34.0273 17.4656 32.4148 18.2729C30.8023 19.0802 29.1523 19.8031 27.4668 20.4427C25.7804 21.0823 24.0658 21.6344 22.3241 22.099C20.5814 22.5646 18.82 22.9396 17.0398 23.226C15.2585 23.5115 13.4689 23.7063 11.6679 23.8104Z" fill="#F94A23"/>
</g>
<path d="M49.2531 93.5135L48.9042 93.325C44.9375 91.1739 41.2104 88.6687 37.7219 85.8072C34.2333 82.9458 31.0469 79.7812 28.1615 76.3125L27.7563 75.8114C19.1073 65.1625 14.3396 51.6427 14.3396 37.7364V26.275L15.001 26.1989C18.4458 25.7916 21.824 25.075 25.1375 24.0479C28.45 23.0218 31.6427 21.702 34.7135 20.0906C37.3135 18.7114 39.7906 17.1375 42.1427 15.3687C44.4958 13.601 46.6958 11.6593 48.7438 9.54474L49.2813 8.99683L49.8198 9.54474C51.8646 11.6562 54.0615 13.5937 56.4115 15.3593C58.7604 17.125 61.2333 18.6958 63.8302 20.0718C66.901 21.6833 70.0938 23.0031 73.4063 24.0291C76.7198 25.0562 80.099 25.7729 83.5427 26.1802L84.2042 26.2645V37.7166C84.2042 51.6239 79.4365 65.1437 70.7885 75.7927L70.3823 76.2937C64.699 83.1666 57.5146 89.0479 49.6115 93.325L49.2531 93.5135ZM15.8313 27.6062V37.7364C15.8313 51.3031 20.4771 64.4916 28.9073 74.8677C29.0396 75.0375 29.1719 75.1979 29.3135 75.3583C32.0927 78.702 35.1583 81.7583 38.5115 84.526C41.8635 87.2947 45.4448 89.727 49.2531 91.8239C56.8531 87.651 63.7542 81.9583 69.2302 75.3395C69.3719 75.1791 69.5042 75.0187 69.6365 74.8489C78.0677 64.4729 82.7125 51.2843 82.7125 37.7166V27.5864C79.2917 27.1395 75.9375 26.3958 72.6479 25.3552C69.3594 24.3156 66.1875 22.9947 63.1313 21.3937C57.9969 18.6718 53.3802 15.251 49.2813 11.1312C45.175 15.2541 40.5521 18.6822 35.4125 21.4125C32.3573 23.0135 29.1844 24.3343 25.8958 25.375C22.6073 26.4145 19.2521 27.1583 15.8313 27.6062Z" fill="#F94A23"/>
<path d="M43.2958 69.7979L24.6781 50.8781L33.9771 41.7197L43.4094 51.3031L64.6802 30.202L73.8656 39.4729L43.2958 69.7979ZM29.0677 50.9156L43.3146 65.3885L69.4761 39.4541L64.6615 34.602L43.3813 55.702L33.9396 46.1197L29.0677 50.9156Z" fill="#F94A23"/>
</g>
<defs>
<clipPath id="clip0_223_6">
<rect width="100" height="100" fill="white"/>
</clipPath>
</defs>
</svg>
