<svg width="99" height="92" viewBox="0 0 99 92" fill="none" xmlns="http://www.w3.org/2000/svg">
<path fill-rule="evenodd" clip-rule="evenodd" d="M23.5662 1.80866C22.3224 0.652937 20.6349 0 18.8734 0C17.112 0 15.4245 0.652937 14.1807 1.80866C11.8734 3.95541 8.65678 6.94691 5.83387 9.57222C1.00887 14.0595 -1.01093 20.5327 0.483865 26.7239C0.485949 26.7317 0.489074 26.7423 0.491157 26.7501C2.96407 36.4085 9.3672 52.0335 26.1589 67.6497C42.9505 83.266 59.7568 89.2209 70.1453 91.5071C70.1526 91.5091 70.1609 91.5091 70.1703 91.511C76.8203 92.8992 83.7766 91.0257 88.5974 86.5423C91.4266 83.9306 94.6453 80.9371 96.9557 78.7894C98.2005 77.6327 98.9005 76.0633 98.9005 74.4252C98.9005 72.787 98.1984 71.2177 96.9557 70.061C92.7453 66.1453 85.2984 59.2197 81.088 55.305C79.8443 54.1483 78.1568 53.4963 76.3953 53.4963C74.6349 53.4963 72.9464 54.1463 71.7036 55.305L63.1766 63.2342C62.7078 63.6701 62.0547 63.8862 61.4005 63.829C57.9839 62.9009 50.9839 60.2282 42.562 52.3948C34.4109 44.8153 31.438 39.3913 30.3974 36.6837C30.3245 36.1198 30.5068 35.5647 30.8974 35.1385C30.9068 35.1307 30.9151 35.1201 30.9245 35.1104C33.0641 32.6982 37.2589 28.147 40.0109 25.1623C42.2672 22.7133 42.1172 19.0611 39.6651 16.7797L23.5662 1.80866ZM20.438 4.71878L36.5349 19.6889C37.3537 20.4503 37.4026 21.668 36.6505 22.4827C33.887 25.483 29.6724 30.0564 27.5172 32.4841C26.2359 33.8859 25.7037 35.7517 26.0662 37.5604C26.0859 37.6592 26.1151 37.758 26.1505 37.8529C27.2214 40.7514 30.3203 46.8313 39.4328 55.305C48.8203 64.0363 56.6547 66.8515 60.3297 67.827C60.4182 67.8493 60.5089 67.8677 60.5995 67.8803C62.6901 68.1806 64.8089 67.5345 66.3047 66.1433L74.8318 58.2141C75.2453 57.8295 75.8089 57.6106 76.3953 57.6106C76.9818 57.6106 77.5464 57.8295 77.9599 58.2141L93.8266 72.9701C94.2411 73.3557 94.4755 73.8798 94.4755 74.4252C94.4755 74.9706 94.2411 75.4947 93.8266 75.8802C91.5193 78.0241 88.3068 81.0137 85.4755 83.6264C85.4734 83.6283 85.4714 83.6302 85.4682 83.6322C81.7214 87.1158 76.3182 88.5747 71.1505 87.4985C61.2516 85.3197 45.2766 79.6099 29.287 64.7406C13.2984 49.8703 7.15886 35.0135 4.79845 25.8104C3.64116 20.9977 5.21199 15.9689 8.96199 12.4814L17.3089 4.71878C17.7234 4.33322 18.287 4.11525 18.8734 4.11525C19.4599 4.11525 20.0234 4.33322 20.438 4.71878Z" fill="#F94A23"/>
<path fill-rule="evenodd" clip-rule="evenodd" d="M49.8475 10.6417C70.6058 10.6417 87.4579 26.3142 87.4579 45.6194C87.4579 46.7558 88.4486 47.6771 89.6704 47.6771C90.8913 47.6771 91.8829 46.7558 91.8829 45.6194C91.8829 24.0444 73.0465 6.52649 49.8475 6.52649C48.6256 6.52649 47.635 7.44874 47.635 8.58411C47.635 9.72046 48.6256 10.6417 49.8475 10.6417Z" fill="#F94A23"/>
<path fill-rule="evenodd" clip-rule="evenodd" d="M49.8475 22.9876C63.2788 22.9876 74.1829 33.1284 74.1829 45.6195C74.1829 46.7558 75.1746 47.6771 76.3954 47.6771C77.6173 47.6771 78.6079 46.7558 78.6079 45.6195C78.6079 30.8567 65.7215 18.8723 49.8475 18.8723C48.6256 18.8723 47.635 19.7936 47.635 20.9299C47.635 22.0653 48.6256 22.9876 49.8475 22.9876Z" fill="#F94A23"/>
<path fill-rule="evenodd" clip-rule="evenodd" d="M49.8475 35.3323C55.9538 35.3323 60.909 39.9406 60.909 45.6194C60.909 46.7558 61.9006 47.6771 63.1215 47.6771C64.3423 47.6771 65.334 46.7558 65.334 45.6194C65.334 37.6718 58.3933 31.217 49.8475 31.217C48.6256 31.217 47.635 32.1393 47.635 33.2747C47.635 34.41 48.6256 35.3323 49.8475 35.3323Z" fill="#F94A23"/>
</svg>
