<svg width="100" height="95" viewBox="0 0 100 95" fill="none" xmlns="http://www.w3.org/2000/svg">
<path fill-rule="evenodd" clip-rule="evenodd" d="M71.55 67.6365L84.1073 55.0792C84.5927 54.5938 85.3802 54.5938 85.8656 55.0792C86.3531 55.5646 86.3531 56.3521 85.8656 56.8375L72.4271 70.276C72.1844 70.5188 71.8646 70.6417 71.5479 70.6417C71.2302 70.6417 70.9115 70.5188 70.6667 70.276L63.9469 63.5563C63.4615 63.0719 63.4615 62.2833 63.9469 61.799C64.4323 61.3135 65.2198 61.3135 65.7073 61.799L71.5479 67.6385L71.55 67.6365ZM92.5188 67.0625V47.4802C85.7 47.0323 79.3188 45.2667 73.9531 42.3302C68.5865 45.2646 62.2052 47.0323 55.3865 47.4802V67.0625C55.3865 72.1729 57.7979 76.4427 62.1719 79.0833L73.9531 86.1906L85.7333 79.0833C90.1094 76.4427 92.5188 72.1729 92.5188 67.0625ZM93.8188 45.0563C86.6802 44.7521 80.025 42.9417 74.5708 39.824C74.1865 39.6042 73.7188 39.6042 73.3344 39.824C67.8823 42.9417 61.2271 44.7521 54.0885 45.0563C53.4229 45.0833 52.8958 45.6333 52.8958 46.299V67.0583C52.8958 73.0771 55.7323 78.101 60.8844 81.2104L73.3083 88.7063C73.5052 88.824 73.7292 88.8844 73.951 88.8844C74.1719 88.8844 74.3958 88.824 74.5938 88.7063L87.0167 81.2104C92.1688 78.1031 95.0052 73.0771 95.0052 67.0604V46.299C95.0052 45.6313 94.4802 45.0833 93.8146 45.0563H93.8188ZM97.4406 67.0625V42.6708H95.8781C87.6781 42.6708 79.7479 40.4604 73.9542 36.5833C68.1615 40.4604 60.2313 42.6708 52.0292 42.6708H50.4688V67.0625C50.4688 73.8656 53.8083 79.7823 59.6323 83.2969L73.9542 91.9375L88.2771 83.2969C94.101 79.7823 97.4406 73.8677 97.4406 67.0646V67.0625ZM49.2219 40.1802H52.0271C58.0917 40.1802 63.9802 38.9115 68.8375 36.6167C65.4229 26.2417 55.6 19.0844 44.5969 19.0844C30.5271 19.0844 19.0833 30.5313 19.0833 44.601C19.0833 58.6698 30.5292 70.1146 44.5969 70.1146C45.7865 70.1146 46.9771 70.0312 48.15 69.8698C48.0365 68.951 47.9781 68.0146 47.9781 67.0604V41.424C47.9781 40.7385 48.5365 40.1802 49.2229 40.1802H49.2219ZM45.9885 82.8344C47.1719 80.674 48.8219 79.0563 50.9063 78.0031C49.8656 76.2469 49.0896 74.3396 48.6 72.3188C47.2802 72.5073 45.9385 72.6042 44.599 72.6042C29.1594 72.6042 16.5948 60.0427 16.5948 44.601C16.5948 29.1583 29.1573 16.5969 44.599 16.5969C50.8146 16.5969 56.701 18.5896 61.6188 22.3604C65.9708 25.6948 69.2812 30.301 71.0667 35.451C71.8208 35.0135 72.5448 34.549 73.2313 34.0583C73.6646 33.7469 74.2469 33.7469 74.6781 34.0583C75.4146 34.5844 76.1917 35.0802 77.0063 35.5448C76.2604 32.4302 76.7292 29.4531 78.4063 26.6875L79.9073 24.2115L77.0146 24.276C73.6604 24.349 70.7573 23.1854 68.3833 20.8115C66.0115 18.4396 64.8469 15.5354 64.9198 12.1802L64.9833 9.28854L62.5104 10.7896C59.6427 12.5313 56.5448 12.9729 53.3052 12.1042C50.0646 11.2354 47.6031 9.30313 45.9906 6.3625L44.599 3.825L43.2073 6.3625C41.5948 9.30313 39.1333 11.2354 35.8927 12.1042C32.6531 12.9729 29.5552 12.5292 26.6854 10.7896L24.2125 9.28854L24.276 12.1802C24.349 15.5354 23.1865 18.4375 20.8125 20.8115C18.4406 23.1833 15.5375 24.351 12.1833 24.276L9.29063 24.2115L10.7917 26.6875C12.5333 29.5552 12.975 32.6521 12.1063 35.8927C11.2375 39.1333 9.30521 41.5948 6.36563 43.2073L3.82813 44.599L6.36354 45.9896C9.30521 47.6031 11.2375 50.0635 12.1063 53.3042C12.975 56.5448 12.5313 59.6427 10.7917 62.5094L9.29063 64.9833L12.1833 64.9188C15.5375 64.8417 18.4406 66.0094 20.8125 68.3833C23.1844 70.7552 24.351 73.6573 24.276 77.0125L24.2125 79.9042L26.6854 78.4031C29.5531 76.6625 32.651 76.2208 35.8927 77.0896C39.1333 77.9573 41.5948 79.8885 43.2073 82.8302L44.599 85.3677L45.9906 82.8302L45.9885 82.8344ZM98.6833 40.1802H95.876C90.2781 40.1802 84.8292 39.0979 80.2031 37.126C79.9115 36.5438 79.6708 35.9156 79.4927 35.25C78.8063 32.6896 79.1563 30.2448 80.5313 27.9792L83.2094 23.5646C83.4458 23.1771 83.45 22.6917 83.224 22.2979C82.9958 21.9063 82.575 21.6677 82.1198 21.676L76.9594 21.7906C74.3094 21.8479 72.0167 20.9281 70.1438 19.0531C68.2698 17.1813 67.349 14.8865 67.4073 12.2385L67.5208 7.07813C67.5292 6.62396 67.2927 6.20104 66.899 5.97292C66.5052 5.74479 66.0198 5.75104 65.6302 5.9875L61.2188 8.66667C58.9542 10.0406 56.5083 10.3917 53.9479 9.70521C51.3865 9.02083 49.4438 7.49479 48.1708 5.17083L45.6896 0.644791C45.4698 0.246875 45.0531 0 44.599 0C44.1448 0 43.726 0.246875 43.5083 0.644791L41.0271 5.17083C39.7542 7.49479 37.8094 9.02083 35.25 9.70521C32.6917 10.3917 30.2458 10.0427 27.9792 8.66667L23.5677 5.9875C23.1802 5.75104 22.6927 5.74688 22.301 5.97292C21.9073 6.20104 21.6688 6.62396 21.6792 7.07813L21.7927 12.2385C21.851 14.8865 20.9302 17.1813 19.0563 19.0531C17.1833 20.9281 14.8865 21.8479 12.2385 21.7906L7.07813 21.676C6.625 21.6677 6.20208 21.9042 5.97396 22.2979C5.74583 22.6917 5.75208 23.1771 5.98854 23.5646L8.66667 27.9792C10.0417 30.2427 10.3917 32.6896 9.70521 35.25C9.01875 37.8083 7.49375 39.7531 5.17083 41.026L0.644792 43.5083C0.246875 43.726 0 44.1448 0 44.599C0 45.0521 0.246875 45.4719 0.644792 45.6896L5.17083 48.1708C7.49583 49.4458 9.02083 51.3885 9.70521 53.9469C10.3917 56.5052 10.0417 58.9521 8.66667 61.2177L5.98854 65.6302C5.75208 66.0177 5.74792 66.5031 5.97396 66.8969C6.20208 67.2885 6.62708 67.5292 7.07813 67.5188L12.2385 67.4052C14.8865 67.3469 17.1813 68.2677 19.0563 70.1417C20.9302 72.0135 21.851 74.3083 21.7927 76.9583L21.6792 82.1188C21.6688 82.5729 21.9073 82.9958 22.301 83.224C22.6927 83.4521 23.1802 83.4458 23.5677 83.2094L27.9792 80.5313C30.2458 79.1563 32.6917 78.8063 35.25 79.4917C37.8115 80.1781 39.7542 81.7021 41.0271 84.026L43.5083 88.5521C43.7281 88.95 44.1448 89.1969 44.599 89.1969C45.0531 89.1969 45.4719 88.95 45.6896 88.5521L48.1708 84.026C49.1583 82.2271 50.551 80.9021 52.3177 80.0813C53.925 82.1646 55.9479 83.974 58.3469 85.4198L73.3115 94.449C73.5094 94.5667 73.7333 94.6271 73.9542 94.6271C74.176 94.6271 74.4 94.5667 74.5979 94.449L89.5625 85.4198C96.149 81.4448 99.9292 74.7521 99.9292 67.0563V41.4198C99.9292 40.7344 99.3708 40.176 98.6844 40.176L98.6833 40.1802Z" fill="#F94A23"/>
</svg>
