<svg width="29" height="39" viewBox="0 0 29 39" fill="none" xmlns="http://www.w3.org/2000/svg">
<path d="M14.1243 0C6.33613 0 0 6.33614 0 14.1243C0 23.7896 12.6399 37.9788 13.1781 38.5781C13.6835 39.1411 14.5661 39.1401 15.0706 38.5781C15.6088 37.9788 28.2487 23.7896 28.2487 14.1243C28.2485 6.33614 21.9125 0 14.1243 0ZM14.1243 21.2306C10.2059 21.2306 7.0181 18.0427 7.0181 14.1243C7.0181 10.2058 10.206 7.01803 14.1243 7.01803C18.0427 7.01803 21.2305 10.2059 21.2305 14.1243C21.2305 18.0428 18.0427 21.2306 14.1243 21.2306Z" fill="#7CB93C"/>
</svg>
